<svg width="138" height="145" viewBox="0 0 138 145" fill="none" xmlns="http://www.w3.org/2000/svg">
<path d="M112 145L86.0192 110.5H137.981L112 145Z" fill="#F41616"/>
<rect x="38" y="5" width="81" height="98" rx="15" fill="white" stroke="black" stroke-width="10"/>
<rect x="100" y="67" width="23" height="49" rx="5" fill="#F41616"/>
<rect y="27" width="73" height="35" rx="5" fill="#F50A0A"/>
<path d="M14.2642 54V39.4545H20.0028C21.1061 39.4545 22.0459 39.6652 22.8224 40.0866C23.599 40.5033 24.1908 41.0833 24.598 41.8267C25.0099 42.5653 25.2159 43.4176 25.2159 44.3835C25.2159 45.3494 25.0076 46.2017 24.5909 46.9403C24.1742 47.679 23.5705 48.2543 22.7798 48.6662C21.9938 49.0781 21.0421 49.2841 19.9247 49.2841H16.267V46.8196H19.4276C20.0194 46.8196 20.5071 46.7178 20.8906 46.5142C21.2789 46.3059 21.5677 46.0194 21.7571 45.6548C21.9512 45.2855 22.0483 44.8617 22.0483 44.3835C22.0483 43.9006 21.9512 43.4792 21.7571 43.1193C21.5677 42.7547 21.2789 42.473 20.8906 42.2741C20.5024 42.0705 20.0099 41.9688 19.4134 41.9688H17.3395V54H14.2642ZM32.3697 54H27.2134V39.4545H32.4123C33.8754 39.4545 35.1348 39.7457 36.1907 40.3281C37.2466 40.9058 38.0586 41.7367 38.6268 42.821C39.1997 43.9053 39.4862 45.2027 39.4862 46.7131C39.4862 48.2282 39.1997 49.5303 38.6268 50.6193C38.0586 51.7083 37.2418 52.544 36.1765 53.1264C35.1159 53.7088 33.8469 54 32.3697 54ZM30.2887 51.3651H32.2418C33.1509 51.3651 33.9156 51.2041 34.5359 50.8821C35.1609 50.5554 35.6296 50.0511 35.9421 49.3693C36.2594 48.6828 36.418 47.7973 36.418 46.7131C36.418 45.6383 36.2594 44.7599 35.9421 44.0781C35.6296 43.3963 35.1632 42.8944 34.543 42.5724C33.9227 42.2505 33.158 42.0895 32.2489 42.0895H30.2887V51.3651ZM41.7642 54V39.4545H51.3949V41.9901H44.8395V45.456H50.7557V47.9915H44.8395V54H41.7642Z" fill="white"/>
</svg>
